<svg width="24" height="30" viewBox="0 0 24 30" fill="none" xmlns="http://www.w3.org/2000/svg">
<path d="M22.795 4.49895C22.1911 3.90405 21.376 3.5729 20.5283 3.57812H15.5558C15.5614 2.63881 15.1937 1.73573 14.5335 1.06756C13.8733 0.39938 12.9747 0.0208364 12.0354 0.0152006C11.0961 0.00956471 10.193 0.377298 9.52483 1.0375C8.85665 1.69771 8.47811 2.59631 8.47247 3.53562H3.49997C2.65231 3.5304 1.83717 3.86155 1.2333 4.45645C0.933832 4.7474 0.695582 5.09532 0.532576 5.47972C0.369569 5.86412 0.2851 6.27725 0.284138 6.69478V26.8256C0.282674 27.2435 0.366042 27.6574 0.529193 28.0421C0.692343 28.4269 0.931882 28.7745 1.2333 29.064C1.83717 29.6589 2.65231 29.99 3.49997 29.9848H20.5C21.3476 29.99 22.1628 29.6589 22.7666 29.064C23.0681 28.7745 23.3076 28.4269 23.4708 28.0421C23.6339 27.6574 23.7173 27.2435 23.7158 26.8256V6.73728C23.7185 6.32175 23.6385 5.90983 23.4804 5.52554C23.3223 5.14124 23.0893 4.79227 22.795 4.49895ZM12.0141 1.66562C12.3223 1.66283 12.6244 1.75149 12.8822 1.92039C13.14 2.08929 13.342 2.33084 13.4625 2.6145C13.583 2.89817 13.6167 3.2112 13.5593 3.51401C13.5019 3.81683 13.3561 4.09583 13.1401 4.31573C12.9242 4.53564 12.6479 4.68657 12.3462 4.74945C12.0444 4.81232 11.7308 4.78432 11.445 4.66897C11.1592 4.55363 10.914 4.35612 10.7405 4.10143C10.5669 3.84674 10.4728 3.54631 10.47 3.23812C10.4604 3.02945 10.4932 2.82102 10.5665 2.62541C10.6398 2.42981 10.7521 2.25112 10.8964 2.10014C11.0408 1.94917 11.2143 1.82905 11.4064 1.74705C11.5985 1.66506 11.8053 1.6229 12.0141 1.62312V1.66562ZM20.9675 26.8681C20.9675 26.9238 20.9562 26.9788 20.9343 27.03C20.9123 27.0811 20.8803 27.1272 20.84 27.1656C20.8 27.2077 20.7515 27.2408 20.6978 27.2628C20.6441 27.2847 20.5863 27.2951 20.5283 27.2931H3.5283C3.4703 27.2951 3.41253 27.2847 3.35881 27.2628C3.30509 27.2408 3.25663 27.2077 3.21664 27.1656C3.17635 27.1272 3.14427 27.0811 3.12236 27.03C3.10044 26.9788 3.08914 26.9238 3.08914 26.8681V6.73728C3.08914 6.68165 3.10044 6.62659 3.12236 6.57545C3.14427 6.52431 3.17635 6.47816 3.21664 6.43978C3.30319 6.36519 3.41406 6.32487 3.5283 6.32645H5.3983V10.3215C5.3983 10.5093 5.47293 10.6895 5.60577 10.8223C5.73861 10.9552 5.91878 11.0298 6.10664 11.0298H17.9216C18.1095 11.0298 18.2897 10.9552 18.4225 10.8223C18.5553 10.6895 18.63 10.5093 18.63 10.3215V6.32645H20.5283C20.6426 6.32487 20.7534 6.36519 20.84 6.43978C20.8803 6.47816 20.9123 6.52431 20.9343 6.57545C20.9562 6.62659 20.9675 6.68165 20.9675 6.73728V26.8681Z" fill="black"/>
</svg>
