<svg width="26" height="27" viewBox="0 0 26 27" fill="none" xmlns="http://www.w3.org/2000/svg">
<path d="M24.8858 5.05607C24.2803 4.46378 23.4662 4.13309 22.6192 4.13524H3.45167C2.6046 4.13309 1.79059 4.46378 1.18501 5.05607C0.589213 5.64892 0.25295 6.45391 0.250007 7.2944V23.4869C0.249124 23.9034 0.331366 24.316 0.491916 24.7003C0.652466 25.0847 0.888097 25.4331 1.18501 25.7252C1.79059 26.3175 2.6046 26.6482 3.45167 26.6461H22.6192C23.4662 26.6482 24.2803 26.3175 24.8858 25.7252C25.1827 25.4331 25.4184 25.0847 25.5789 24.7003C25.7395 24.316 25.8217 23.9034 25.8208 23.4869V7.2944C25.8179 6.45391 25.4816 5.64892 24.8858 5.05607ZM3.02667 7.2944C3.02667 7.23877 3.03798 7.18371 3.05989 7.13257C3.08181 7.08143 3.11388 7.03527 3.15417 6.9969C3.23491 6.92201 3.34157 6.88138 3.45167 6.88357H22.6192C22.733 6.88446 22.843 6.92447 22.9308 6.9969C23.0033 7.07911 23.0436 7.1848 23.0442 7.2944V23.4869C23.0436 23.5965 23.0033 23.7022 22.9308 23.7844C22.8898 23.8251 22.8412 23.8573 22.7877 23.8792C22.7342 23.9011 22.677 23.9122 22.6192 23.9119H3.45167C3.39578 23.9137 3.34017 23.9032 3.28877 23.8812C3.23737 23.8591 3.19143 23.8261 3.15417 23.7844C3.11388 23.746 3.08181 23.6999 3.05989 23.6487C3.03798 23.5976 3.02667 23.5425 3.02667 23.4869V7.2944Z" fill="black"/>
<path d="M4.83366 1.73106C4.83366 0.913093 5.49676 0.25 6.31472 0.25C7.13269 0.25 7.79578 0.913093 7.79578 1.73106V7.26894C7.79578 8.08691 7.13269 8.75 6.31472 8.75C5.49676 8.75 4.83366 8.08691 4.83366 7.26894V1.73106Z" fill="black"/>
<path d="M18.1632 1.73106C18.1632 0.913093 18.8263 0.25 19.6443 0.25C20.4622 0.25 21.1253 0.913093 21.1253 1.73106V7.26894C21.1253 8.08691 20.4622 8.75 19.6443 8.75C18.8263 8.75 18.1632 8.08691 18.1632 7.26894V1.73106Z" fill="black"/>
<path d="M2.00033 10.1667H23.2503V13H2.00033V10.1667Z" fill="black"/>
</svg>
